<svg xmlns="http://www.w3.org/2000/svg" width="74.44" height="73.88" viewBox="0 0 74.44 73.88">
  <g id="XMLID_1_" transform="translate(0 -0.181)">
    <path id="パス_6" data-name="パス 6" d="M15.051,9.09l27.326,5.428a4.582,4.582,0,0,1,3.691,4.528V50.683a4.646,4.646,0,0,1-4.652,4.652H13.5a1.536,1.536,0,0,0,1.551-1.551V52.234H41.415a1.555,1.555,0,0,0,1.551-1.551V19.046a1.558,1.558,0,0,0-1.21-1.52L15.051,12.254Z" transform="translate(28.372 18.725)" fill="#20d8ba"/>
    <path id="パス_7" data-name="パス 7" d="M24.754,14a1.551,1.551,0,1,1,0,3.1h-6.2a1.551,1.551,0,0,1,0-3.1Z" transform="translate(35.728 29.044)" fill="#20d8ba"/>
    <path id="パス_8" data-name="パス 8" d="M24.754,17a1.551,1.551,0,1,1,0,3.1h-6.2a1.551,1.551,0,0,1,0-3.1Z" transform="translate(35.728 35.349)" fill="#20d8ba"/>
    <path id="パス_9" data-name="パス 9" d="M24.754,20a1.551,1.551,0,1,1,0,3.1h-6.2a1.551,1.551,0,1,1,0-3.1Z" transform="translate(35.728 41.654)" fill="#20d8ba"/>
    <path id="パス_10" data-name="パス 10" d="M16.1,53.974a1.551,1.551,0,0,1-3.1,0V10.551a1.649,1.649,0,0,1,.558-1.21,1.63,1.63,0,0,1,1.3-.31l1.241.248V53.974Z" transform="translate(27.322 18.536)" fill="#20d8ba"/>
    <path id="パス_11" data-name="パス 11" d="M20.356,23v1.551A1.536,1.536,0,0,0,21.907,26.1H9.5a1.536,1.536,0,0,0,1.551-1.551V23Z" transform="translate(19.966 47.959)" fill="#20d8ba"/>
    <path id="パス_12" data-name="パス 12" d="M15.754,5a1.551,1.551,0,1,1,0,3.1h-6.2a1.551,1.551,0,0,1,0-3.1Z" transform="translate(16.813 10.129)" fill="#20d8ba"/>
    <path id="パス_13" data-name="パス 13" d="M17.3,9.551A1.536,1.536,0,0,1,15.754,11.1h-6.2a1.551,1.551,0,0,1,0-3.1h6.2A1.536,1.536,0,0,1,17.3,9.551Z" transform="translate(16.813 16.434)" fill="#20d8ba"/>
    <path id="パス_14" data-name="パス 14" d="M15.754,11a1.551,1.551,0,1,1,0,3.1h-6.2a1.551,1.551,0,0,1,0-3.1Z" transform="translate(16.813 22.739)" fill="#20d8ba"/>
    <path id="パス_15" data-name="パス 15" d="M15.754,14a1.551,1.551,0,1,1,0,3.1h-6.2a1.551,1.551,0,0,1,0-3.1Z" transform="translate(16.813 29.044)" fill="#20d8ba"/>
    <path id="パス_16" data-name="パス 16" d="M12.3,15.551A1.536,1.536,0,0,1,10.754,17.1h-6.2a1.551,1.551,0,0,1,0-3.1h6.2A1.536,1.536,0,0,1,12.3,15.551Z" transform="translate(6.305 29.044)" fill="#20d8ba"/>
    <path id="パス_17" data-name="パス 17" d="M10.754,5a1.551,1.551,0,0,1,0,3.1h-6.2a1.551,1.551,0,1,1,0-3.1Z" transform="translate(6.305 10.129)" fill="#20d8ba"/>
    <path id="パス_18" data-name="パス 18" d="M10.754,8a1.551,1.551,0,0,1,0,3.1h-6.2a1.551,1.551,0,0,1,0-3.1Z" transform="translate(6.305 16.434)" fill="#20d8ba"/>
    <path id="パス_19" data-name="パス 19" d="M10.754,11a1.551,1.551,0,0,1,0,3.1h-6.2a1.551,1.551,0,1,1,0-3.1Z" transform="translate(6.305 22.739)" fill="#20d8ba"/>
    <path id="パス_20" data-name="パス 20" d="M19.508,21.652A1.555,1.555,0,0,0,17.957,20.1h-9.3A1.536,1.536,0,0,0,7.1,21.652V35.61H4V21.652A4.646,4.646,0,0,1,8.652,17h9.3a4.646,4.646,0,0,1,4.652,4.652V35.61h-3.1Z" transform="translate(8.407 35.349)" fill="#20d8ba"/>
    <path id="パス_21" data-name="パス 21" d="M7.1,23H22.61v1.551A1.536,1.536,0,0,1,21.059,26.1H5.551A1.536,1.536,0,0,1,4,24.551V23Z" transform="translate(8.407 47.959)" fill="#20d8ba"/>
    <path id="パス_22" data-name="パス 22" d="M5.428.241l34.087,5.18a4.635,4.635,0,0,1,3.908,4.59v17.8l-1.241-.248a1.63,1.63,0,0,0-1.3.31,1.649,1.649,0,0,0-.558,1.21V10.011a1.568,1.568,0,0,0-1.3-1.551L4.932,3.312a.859.859,0,0,0-.279-.031,1.463,1.463,0,0,0-.993.372A1.483,1.483,0,0,0,3.1,4.831V69.408a1.555,1.555,0,0,0,1.551,1.551h7.754V72.51a1.536,1.536,0,0,0,1.551,1.551h-9.3A4.646,4.646,0,0,1,0,69.408V4.831A4.567,4.567,0,0,1,1.644,1.3,4.656,4.656,0,0,1,5.428.241Z" transform="translate(0 0)" fill="#20d8ba"/>
  </g>
</svg>
