<svg id="home-page" xmlns="http://www.w3.org/2000/svg" width="70.606" height="70.606" viewBox="0 0 70.606 70.606">
  <g id="グループ_29" data-name="グループ 29">
    <g id="グループ_28" data-name="グループ 28">
      <path id="パス_1" data-name="パス 1" d="M64.4,0H6.206A6.213,6.213,0,0,0,0,6.206V64.4a6.213,6.213,0,0,0,6.206,6.206H64.4A6.213,6.213,0,0,0,70.606,64.4V6.206A6.213,6.213,0,0,0,64.4,0ZM4.137,6.206A2.071,2.071,0,0,1,6.206,4.137H16.686V16.548H4.137ZM66.469,64.4A2.071,2.071,0,0,1,64.4,66.469H6.206A2.071,2.071,0,0,1,4.137,64.4V20.685H66.469Zm0-47.852H20.823V4.137H64.4a2.071,2.071,0,0,1,2.069,2.069Z" fill="#20d8ba"/>
    </g>
  </g>
  <g id="グループ_31" data-name="グループ 31" transform="translate(53.92 8.274)">
    <g id="グループ_30" data-name="グループ 30">
      <path id="パス_2" data-name="パス 2" d="M397.344,60h-4.275a2.069,2.069,0,0,0,0,4.137h4.275a2.069,2.069,0,0,0,0-4.137Z" transform="translate(-391 -60)" fill="#20d8ba"/>
    </g>
  </g>
  <g id="グループ_33" data-name="グループ 33" transform="translate(41.509 8.274)">
    <g id="グループ_32" data-name="グループ 32">
      <path id="パス_3" data-name="パス 3" d="M307.206,60h-4.137a2.069,2.069,0,0,0,0,4.137h4.137a2.069,2.069,0,0,0,0-4.137Z" transform="translate(-301 -60)" fill="#20d8ba"/>
    </g>
  </g>
  <g id="グループ_35" data-name="グループ 35" transform="translate(29.098 8.274)">
    <g id="グループ_34" data-name="グループ 34">
      <path id="パス_4" data-name="パス 4" d="M217.206,60h-4.137a2.069,2.069,0,0,0,0,4.137h4.137a2.069,2.069,0,1,0,0-4.137Z" transform="translate(-211 -60)" fill="#20d8ba"/>
    </g>
  </g>
  <g id="グループ_37" data-name="グループ 37" transform="translate(12.549 24.96)">
    <g id="グループ_36" data-name="グループ 36">
      <path id="パス_5" data-name="パス 5" d="M135.9,202.291l-20.685-20.685a2.068,2.068,0,0,0-2.925,0L91.605,202.291a2.069,2.069,0,0,0,1.463,3.531h6.206V216.3a2.069,2.069,0,0,0,2.069,2.069h8.274a2.069,2.069,0,0,0,2.069-2.069v-6.344h4.137V216.3a2.069,2.069,0,0,0,2.069,2.069h8.274a2.069,2.069,0,0,0,2.069-2.069V205.822h6.206a2.069,2.069,0,0,0,1.463-3.531Zm-9.737-.606a2.069,2.069,0,0,0-2.069,2.069v10.481h-4.137v-6.344a2.069,2.069,0,0,0-2.069-2.069h-8.274a2.069,2.069,0,0,0-2.069,2.069v6.344h-4.137V203.754a2.069,2.069,0,0,0-2.069-2.069h-3.28l15.692-15.692,15.692,15.692Z" transform="translate(-90.999 -181)" fill="#20d8ba"/>
    </g>
  </g>
</svg>
