<svg xmlns="http://www.w3.org/2000/svg" width="74.074" height="74.334" viewBox="0 0 74.074 74.334">
  <g id="sport-team" transform="translate(-0.894)">
    <path id="パス_23" data-name="パス 23" d="M246.5,9.446a1.462,1.462,0,0,0,1.462-1.462V1.462a1.462,1.462,0,0,0-2.924,0V7.983A1.462,1.462,0,0,0,246.5,9.446Z" transform="translate(-208.697)" fill="#20d8ba"/>
    <path id="パス_24" data-name="パス 24" d="M73.542,120.457l-2.583-2.576a4.9,4.9,0,0,0-5.794-.827L60.3,112.193l.237-.237a5.075,5.075,0,0,0,0-7.166,5.019,5.019,0,0,0-2.545-1.376,5.106,5.106,0,0,0,.2-1.423,5.063,5.063,0,0,0-4.028-4.959,5.105,5.105,0,0,0,.2-1.423,5.058,5.058,0,0,0-4.027-4.957A5.06,5.06,0,0,0,44.93,84.2L35.284,82.37c-1.471-.279-3.308-.464-4.468.594a2.64,2.64,0,0,0-.221.229,5.085,5.085,0,0,0-5.335,1.173,5.03,5.03,0,0,0-1.481,3.584,5.112,5.112,0,0,0,.2,1.423,5.064,5.064,0,0,0-4.027,4.954,5.1,5.1,0,0,0,.2,1.427,5.07,5.07,0,0,0-3.143,7.824,5.067,5.067,0,0,0-1.946,8.382l.236.235-4.868,4.859a4.889,4.889,0,0,0-5.531.958L2.32,120.59a4.884,4.884,0,0,0,0,6.9l3.226,3.222a1.462,1.462,0,1,0,2.067-2.069l-3.226-3.222a1.96,1.96,0,0,1,0-2.759l2.585-2.577a1.958,1.958,0,0,1,2.385-.292,1.475,1.475,0,0,0,.184.225,1.455,1.455,0,0,0,.42.292l14.822,14.8a1.44,1.44,0,0,0,.7.712,1.957,1.957,0,0,1-.081,2.67l-2.582,2.579a1.964,1.964,0,0,1-2.765,0l-3.226-3.226a1.462,1.462,0,0,0-2.068,2.068l3.228,3.228a4.9,4.9,0,0,0,6.9,0l2.584-2.581a4.889,4.889,0,0,0,.685-6.038l5.479-5.472.018-.018c.627-.649,2.374-.527,4.064-.41a21.03,21.03,0,0,0,3.846.026l6,5.992a4.886,4.886,0,0,0,.829,5.788l2.584,2.581a4.889,4.889,0,0,0,6.9,0l15.671-15.652a4.884,4.884,0,0,0,0-6.9ZM34.74,85.243l6.343,1.2-3.8,3.795a9.217,9.217,0,0,1-2.275-1.653,6.727,6.727,0,0,1-2.152-3.324h0a1.277,1.277,0,0,1-.006-.144,4.954,4.954,0,0,1,1.888.127Zm-7.413,1.192a2.157,2.157,0,0,1,2.728-.259A10.458,10.458,0,0,0,32.99,90.7a10.828,10.828,0,0,0,4.212,2.61,2.146,2.146,0,0,1-3.28,2.741h0l-6.594-6.582a2.153,2.153,0,0,1,0-3.031Zm-3.821,6.38a2.157,2.157,0,0,1,3.038,0l5.31,5.3a2.149,2.149,0,0,1-3.042,3.036h0l-4.028-4.027-.019-.018-1.26-1.26a2.146,2.146,0,0,1,0-3.032Zm-3.828,6.379a2.163,2.163,0,0,1,3.028-.01l4.04,4.039a2.146,2.146,0,0,1-3.041,3.029l-1.465-1.463h0l-2.562-2.559a2.151,2.151,0,0,1,0-3.034Zm-2.547,7.664a2.161,2.161,0,0,1,3.043,0l1.467,1.465a2.146,2.146,0,0,1-3.042,3.028l-.184-.183-.007-.007-.008-.008-1.267-1.262a2.147,2.147,0,0,1,0-3.032Zm29.8,16.617a1.462,1.462,0,0,0-2.068,0l-1.3,1.3c-1.236,1.236-3.476,1.08-5.642.93-2.352-.163-4.784-.332-6.358,1.284l-5.386,5.379L12.707,118.919l4.766-4.758a5.071,5.071,0,0,0,7.718-4.324c0-.013,0-.025,0-.038h.038a5.058,5.058,0,0,0,5.069-5.063c0-.013,0-.025,0-.038h.038A5.052,5.052,0,0,0,35.4,99.6h.039a5.072,5.072,0,0,0,4.328-7.709l4.177-4.176a2.145,2.145,0,0,1,1.1-.585c.044,0,.087-.012.129-.02a2.143,2.143,0,0,1,1.82,3.637l-1.272,1.267-.013.012-1.465,1.463a1.462,1.462,0,0,0,2.066,2.069l1.277-1.276h0l.193-.192a2.154,2.154,0,0,1,3.034.007,2.146,2.146,0,0,1,0,3.031l-1.279,1.282h0l-1.465,1.459a1.462,1.462,0,1,0,2.063,2.072l1.472-1.466a2.146,2.146,0,0,1,3.037,3.033l-2.551,2.552a1.462,1.462,0,1,0,2.068,2.067l1.25-1.251.022-.02a2.146,2.146,0,0,1,3.038,3.032l-1.271,1.27h0l-2.017,2.015a1.462,1.462,0,0,0,2.067,2.069l.987-.986,4.73,4.724-13.466,13.45-4.825-4.819a5.749,5.749,0,0,0,.96-.773l1.3-1.3a1.462,1.462,0,0,0,0-2.068Zm24.547,1.811L55.8,140.939a1.965,1.965,0,0,1-2.764,0l-2.584-2.581a1.955,1.955,0,0,1,0-2.755L66.129,119.95a1.965,1.965,0,0,1,2.765,0l2.583,2.576a1.96,1.96,0,0,1,0,2.76Z" transform="translate(0 -70.226)" fill="#20d8ba"/>
    <path id="パス_25" data-name="パス 25" d="M87.48,10.559a1.462,1.462,0,0,0,2.066-2.07L84.218,3.172a1.462,1.462,0,1,0-2.066,2.07Z" transform="translate(-69.094 -2.346)" fill="#20d8ba"/>
    <path id="パス_26" data-name="パス 26" d="M373.113,10.987a1.458,1.458,0,0,0,1.033-.428l5.324-5.317A1.462,1.462,0,0,0,377.4,3.173L372.08,8.49a1.462,1.462,0,0,0,1.033,2.5Z" transform="translate(-316.929 -2.347)" fill="#20d8ba"/>
    <path id="パス_27" data-name="パス 27" d="M60.349,430.63a1.462,1.462,0,0,0,.018,2.068l0,0a1.462,1.462,0,1,0-.022-2.072Z" transform="translate(-50.465 -367.736)" fill="#20d8ba"/>
    <path id="パス_28" data-name="パス 28" d="M333.975,335.043a1.462,1.462,0,1,0-.657-2.768l-.008,0a1.461,1.461,0,0,0,.665,2.764Z" transform="translate(-283.47 -283.9)" fill="#20d8ba"/>
  </g>
</svg>
